<svg width="28" height="28" viewBox="0 0 28 28" fill="none" xmlns="http://www.w3.org/2000/svg">
<path d="M16.3337 2.33325H7.00033C5.71699 2.33325 4.66699 3.38325 4.66699 4.66659V23.3333C4.66699 24.6166 5.71699 25.6666 7.00033 25.6666H21.0003C22.2837 25.6666 23.3337 24.6166 23.3337 23.3333V9.33325L16.3337 2.33325ZM14.0003 11.6666C15.2837 11.6666 16.3337 12.7166 16.3337 13.9999C16.3337 15.2833 15.2837 16.3333 14.0003 16.3333C12.717 16.3333 11.667 15.2833 11.667 13.9999C11.667 12.7166 12.717 11.6666 14.0003 11.6666ZM18.667 20.9999H9.33366V20.3349C9.33366 19.3899 9.89366 18.5499 10.757 18.1766C11.7487 17.7449 12.8453 17.4999 14.0003 17.4999C15.1553 17.4999 16.252 17.7449 17.2437 18.1766C18.107 18.5499 18.667 19.3899 18.667 20.3349V20.9999Z" fill="black"/>
</svg>
