<?xml version="1.0" encoding="utf-8"?>
<!-- Generator: Adobe Illustrator 26.0.1, SVG Export Plug-In . SVG Version: 6.00 Build 0)  -->
<svg version="1.1" id="Layer_1" xmlns="http://www.w3.org/2000/svg" xmlns:xlink="http://www.w3.org/1999/xlink" x="0px" y="0px"
	 viewBox="0 0 10 10" width="10px" height="10px" style="enable-background:new 0 0 10 10;" xml:space="preserve">
<style type="text/css">
	.st0{fill-rule:evenodd;clip-rule:evenodd;fill:#5669FF;}
	.st1{opacity:0.4;fill:#5669FF;enable-background:new    ;}
</style>
<g>
	<path class="st0" d="M3.3,0.5c1.1-0.6,2.4-0.6,3.5,0c1.1,0.7,1.7,1.9,1.7,3.1c0,1.3-0.7,2.5-1.6,3.4C6.4,7.6,5.8,8,5.2,8.4
		C5.1,8.4,5.1,8.5,5,8.5c-0.1,0-0.1,0-0.2-0.1C3.9,7.8,3.1,7.1,2.4,6.2C1.8,5.4,1.5,4.5,1.5,3.6C1.5,2.3,2.2,1.1,3.3,0.5z M3.9,4.1
		C4.1,4.6,4.5,4.8,5,4.8c0.3,0,0.6-0.1,0.8-0.4C6.1,4.3,6.2,4,6.2,3.6c0-0.5-0.3-0.9-0.7-1.1C5,2.3,4.5,2.4,4.2,2.8
		C3.9,3.2,3.7,3.6,3.9,4.1z"/>
	<path class="st1" d="M5,10c1.4,0,2.5-0.2,2.5-0.5S6.4,9,5,9S2.5,9.2,2.5,9.5S3.6,10,5,10z"/>
</g>
</svg>
