<?xml version="1.0" encoding="utf-8"?>
<!-- Generator: Adobe Illustrator 26.0.1, SVG Export Plug-In . SVG Version: 6.00 Build 0)  -->
<svg version="1.1" id="Layer_1" xmlns="http://www.w3.org/2000/svg" xmlns:xlink="http://www.w3.org/1999/xlink" x="0px" y="0px"
	 viewBox="0 0 10 10" width="10px" height="10px" style="enable-background:new 0 0 10 10;" xml:space="preserve">
<style type="text/css">
	.st0{fill:#5669FF;}
	.st1{fill:#BBC3FF;}
</style>
<g>
	<path class="st0" d="M5,10c-2.8,0-5-2.2-5-5s2.2-5,5-5s5,2.2,5,5S7.8,10,5,10z M5,0.7C2.6,0.7,0.7,2.6,0.7,5c0,2.4,1.9,4.3,4.3,4.3
		c2.4,0,4.3-1.9,4.3-4.3C9.3,2.6,7.4,0.7,5,0.7z"/>
	<path class="st1" d="M6.9,6.3c-0.1,0-0.1,0-0.2,0L4.8,5.3C4.7,5.3,4.6,5.1,4.6,5V2.2C4.6,2,4.8,1.9,5,1.9S5.4,2,5.4,2.2v2.6L7,5.6
		c0.2,0.1,0.3,0.3,0.2,0.5C7.1,6.2,7,6.3,6.9,6.3z"/>
</g>
</svg>
