<svg width="31" height="30" viewBox="0 0 31 30" fill="none" xmlns="http://www.w3.org/2000/svg">
<path d="M29.8648 20.5723C29.5334 16.5501 29.2204 12.5278 28.9074 8.52379C28.7969 7.06777 28.0052 6.35796 26.5138 6.35796C25.5932 6.35796 24.691 6.35796 23.7151 6.35796C23.7151 5.57535 23.7151 4.86555 23.7151 4.02834C24.3227 4.02834 24.8935 4.13754 25.3906 3.99194C25.7036 3.90093 26.0719 3.46413 26.1087 3.15473C26.1455 2.89992 25.7036 2.37212 25.4643 2.35392C23.6599 2.28112 21.8555 2.28112 20.0511 2.35392C19.7933 2.37212 19.3514 2.91812 19.3698 3.20933C19.3882 3.50053 19.8117 3.86453 20.1431 4.01014C20.4561 4.15574 20.8796 3.97374 21.2294 4.08294C21.4688 4.15574 21.7818 4.42874 21.8002 4.64714C21.8739 5.19315 21.8186 5.75735 21.8186 6.37616C20.1615 6.37616 18.6701 6.37616 17.1603 6.37616C16.5527 6.37616 16.0924 6.61276 16.074 7.23157C16.0556 7.90498 16.5159 8.17798 17.1603 8.17798C17.3813 8.17798 17.5838 8.17798 17.8047 8.17798C20.5298 8.17798 23.2732 8.17798 25.9982 8.17798C26.3297 8.17798 26.6427 8.21438 27.0109 8.23258C27.3976 13.1284 27.7842 17.8969 28.1709 22.7199C19.2961 22.7199 10.5687 22.7199 1.76759 22.7199C1.87806 21.3367 1.97012 20.0081 2.0806 18.6977C2.35678 15.3671 2.63297 12.0546 2.89074 8.72399C2.94598 8.08698 2.79868 7.52277 2.04377 7.48637C1.3441 7.44997 1.12315 7.95958 1.08633 8.56019C0.920618 11.0354 0.736494 13.547 0.533958 16.0405C0.368247 17.8423 0.184124 19.6441 0 21.4459C0 24.2852 0 27.1426 0 30C9.99791 30 20.0142 30 30.0121 30C30.0121 27.1426 30.0121 24.3034 30.0121 21.4459C29.9569 21.1547 29.8832 20.8635 29.8648 20.5723ZM28.2814 27.7432C28.2814 27.907 27.9684 28.1436 27.7658 28.18C27.3792 28.2528 26.9741 28.1982 26.569 28.1982C18.6333 28.1982 10.6976 28.18 2.76185 28.2164C1.95171 28.2164 1.58346 28.0526 1.67552 27.1608C1.74917 26.3236 1.69394 25.4864 1.69394 24.54C10.6239 24.54 19.4066 24.54 28.3182 24.54C28.3182 25.6502 28.3366 26.7058 28.2814 27.7432Z" fill="black"/>
<path d="M5.52361 12.91C8.10134 12.91 10.6791 12.91 13.2568 12.91C14.4536 12.91 14.693 12.6734 14.693 11.454C14.693 8.17796 14.7114 4.90192 14.6746 1.64409C14.6746 1.15268 14.3615 0.661274 14.1774 0.169869C14.1774 0.169869 13.8828 -0.157735 13.4409 0.169869C13.1095 0.479272 12.7781 0.788675 12.3914 1.15268C12.0048 0.825076 11.6181 0.497472 11.2314 0.169869C11.2314 0.169869 10.8632 -0.157735 10.4949 0.169869C10.1635 0.515672 9.8321 0.843276 9.48227 1.20728C9.04037 0.825076 8.65371 0.497472 8.28547 0.169869C8.28547 0.169869 7.93563 -0.139535 7.54897 0.169869C7.23596 0.497472 6.92295 0.825076 6.51788 1.24368C6.16805 0.861476 5.83662 0.515672 5.52361 0.169869C5.17378 -0.212336 4.78712 0.169869 4.78712 0.169869C4.603 0.624874 4.27158 1.07988 4.25316 1.51668C4.21634 4.88372 4.21634 8.25076 4.23475 11.5996C4.23475 12.6552 4.49252 12.8918 5.52361 12.91ZM6.11281 3.60971C6.79407 3.1911 7.40167 2.8271 8.04611 2.42669C9.35338 3.55511 9.35338 3.55511 10.8632 2.44489C10.8632 2.44489 11.3972 3.77351 12.8333 3.62791L11.7654 2.9909C12.0968 3.1911 12.4467 3.4095 12.8333 3.62791C12.8333 5.92113 12.8333 8.45096 12.8333 11.0536C10.587 11.0536 8.37753 11.0536 6.11281 11.0536C6.11281 8.48736 6.11281 5.93933 6.11281 3.60971ZM11.4892 2.8089L11.2314 2.6451C11.3051 2.6997 11.3972 2.7543 11.4892 2.8089Z" fill="black"/>
<path d="M25.6299 10.8534C25.6115 9.87055 25.3721 9.65214 24.3595 9.63394C23.2179 9.61574 22.0947 9.63394 20.9532 9.63394C19.7564 9.63394 18.5596 9.63394 17.3628 9.63394C16.6079 9.63394 16.2212 9.97975 16.2212 10.726C16.2212 11.818 16.2212 12.91 16.2212 14.002C16.2212 14.6936 16.571 15.0758 17.2891 15.0758C19.7011 15.0758 22.1316 15.0758 24.5436 15.0758C25.2617 15.0758 25.6299 14.7482 25.6299 14.0202C25.6299 12.9828 25.6483 11.909 25.6299 10.8534ZM23.7887 13.2194C21.9106 13.2194 20.0325 13.2194 18.0808 13.2194C18.0808 12.6188 18.0808 12.091 18.0808 11.5086C19.9957 11.5086 21.8554 11.5086 23.7887 11.5086C23.7887 12.0728 23.7887 12.6006 23.7887 13.2194Z" fill="black"/>
<path d="M21.0269 19.6076C20.3456 19.5712 19.8116 19.7532 19.8301 20.5176C19.8485 21.2274 20.3824 21.3912 20.99 21.3912C21.6529 21.4094 22.2052 21.1728 22.1868 20.4448C22.1684 19.7714 21.6529 19.553 21.0269 19.6076Z" fill="black"/>
<path d="M21.0453 16.4408C20.4193 16.4408 19.8301 16.5682 19.8301 17.3326C19.8301 18.0424 20.3272 18.2244 20.9901 18.188C21.6161 18.2426 22.1684 18.0424 22.1869 17.3144C22.1869 16.641 21.6529 16.4408 21.0453 16.4408Z" fill="black"/>
<path d="M24.4332 21.3913C25.0592 21.3913 25.5564 21.1547 25.5564 20.4813C25.538 19.8079 25.0592 19.5713 24.4148 19.6077C23.7704 19.5713 23.3101 19.8261 23.3101 20.4995C23.3101 21.1911 23.8256 21.3913 24.4332 21.3913Z" fill="black"/>
<path d="M17.5653 19.6077C16.9024 19.5713 16.4421 19.8443 16.4421 20.5177C16.4606 21.1911 16.9577 21.4095 17.5837 21.3913C18.2097 21.3913 18.6884 21.1547 18.67 20.4631C18.6516 19.7897 18.1729 19.5713 17.5653 19.6077Z" fill="black"/>
<path d="M17.6207 16.4408C17.0131 16.4408 16.4607 16.5864 16.4607 17.2962C16.4423 17.9878 16.921 18.2244 17.5839 18.188C18.2099 18.2244 18.6886 18.006 18.6886 17.2962C18.6702 16.6592 18.2099 16.459 17.6207 16.4408Z" fill="black"/>
<path d="M24.4332 18.2062C25.0592 18.2426 25.5564 18.006 25.5564 17.3326C25.5564 16.6592 25.0408 16.4408 24.4332 16.4408C23.8256 16.4408 23.3101 16.641 23.3101 17.3326C23.3101 18.006 23.7888 18.2426 24.4332 18.2062Z" fill="black"/>
<path d="M16.2765 25.723H13.1096C12.7229 25.723 12.4099 26.0324 12.4099 26.4146C12.4099 26.7968 12.7229 27.1062 13.1096 27.1062H16.2765C16.6632 27.1062 16.9762 26.7968 16.9762 26.4146C16.9762 26.0324 16.6632 25.723 16.2765 25.723Z" fill="black"/>
<path d="M8.04609 2.40857L6.11279 3.59158C7.015 3.79178 8.04609 2.40857 8.04609 2.40857Z" fill="black"/>
</svg>
