<svg width="32" height="30" viewBox="0 0 32 30" fill="none" xmlns="http://www.w3.org/2000/svg">
<path fill-rule="evenodd" clip-rule="evenodd" d="M30.094 15C30.094 23.2843 23.3783 30 15.094 30C6.80972 30 0.0939941 23.2843 0.0939941 15C0.0939941 6.71573 6.80972 0 15.094 0C23.3783 0 30.094 6.71573 30.094 15ZM15.094 28.125C22.3427 28.125 28.219 22.2487 28.219 15C28.219 7.75126 22.3427 1.875 15.094 1.875C7.84526 1.875 1.96899 7.75126 1.96899 15C1.96899 22.2487 7.84526 28.125 15.094 28.125Z" fill="black"/>
<path d="M26.344 29.375C28.7602 29.375 30.719 27.4162 30.719 25C30.719 22.5838 28.7602 20.625 26.344 20.625C23.9277 20.625 21.969 22.5838 21.969 25C21.969 27.4162 23.9277 29.375 26.344 29.375Z" fill="white"/>
<path fill-rule="evenodd" clip-rule="evenodd" d="M26.344 21.2499C24.2729 21.2499 22.594 22.9288 22.594 24.9999C22.594 27.0709 24.2729 28.7499 26.344 28.7499C28.4151 28.7499 30.094 27.0709 30.094 24.9999C30.094 22.9288 28.4151 21.2499 26.344 21.2499ZM21.344 24.9999C21.344 22.2385 23.5826 19.9999 26.344 19.9999C29.1054 19.9999 31.344 22.2385 31.344 24.9999C31.344 27.7613 29.1054 29.9999 26.344 29.9999C23.5826 29.9999 21.344 27.7613 21.344 24.9999Z" fill="black"/>
<path fill-rule="evenodd" clip-rule="evenodd" d="M26.344 22.8146C26.5856 22.8146 26.7815 23.0105 26.7815 23.2521V26.7521C26.7815 26.9937 26.5856 27.1896 26.344 27.1896C26.1024 27.1896 25.9065 26.9937 25.9065 26.7521V23.2521C25.9065 23.0105 26.1024 22.8146 26.344 22.8146Z" fill="black"/>
<path fill-rule="evenodd" clip-rule="evenodd" d="M24.156 24.9999C24.156 24.7583 24.3519 24.5624 24.5935 24.5624H28.0935C28.3351 24.5624 28.531 24.7583 28.531 24.9999C28.531 25.2415 28.3351 25.4374 28.0935 25.4374H24.5935C24.3519 25.4374 24.156 25.2415 24.156 24.9999Z" fill="black"/>
<path fill-rule="evenodd" clip-rule="evenodd" d="M9.83862 8.21155H22.6267V9.86905L16.6578 16.8328L16.7202 23.9508H19.1838V24.9345H13.2816V23.9508H15.7365L15.6727 16.6755L9.83862 9.86905V8.21155ZM16.2327 15.8172L21.643 9.50515V9.19525H10.8223V9.50515L16.2327 15.8172Z" fill="black"/>
<path fill-rule="evenodd" clip-rule="evenodd" d="M20.0536 6.55907L17.5943 9.51018L16.8386 8.88043L19.2979 5.92932L20.0536 6.55907Z" fill="black"/>
<path fill-rule="evenodd" clip-rule="evenodd" d="M10.3304 6.51742C8.85147 6.51742 7.65255 7.71634 7.65255 9.19527C7.65255 10.6742 8.85147 11.8731 10.3304 11.8731C10.8389 11.8731 11.3133 11.7317 11.7176 11.4863L12.1146 12.1404C11.594 12.4564 10.9829 12.6382 10.3304 12.6382C8.42891 12.6382 6.88745 11.0968 6.88745 9.19527C6.88745 7.29378 8.42891 5.75232 10.3304 5.75232C12.0365 5.75232 13.4521 6.9929 13.7257 8.62118C13.7571 8.80812 13.7734 8.50809 13.7734 8.70342H13.0083C13.0083 8.55073 12.9955 8.89316 12.9711 8.74794C12.7585 7.48201 11.6567 6.51742 10.3304 6.51742Z" fill="black"/>
<path fill-rule="evenodd" clip-rule="evenodd" d="M11.7837 11.2162L12.3848 12.2066L12.2166 12.3087C11.6661 12.6428 11.0198 12.8351 10.3304 12.8351C8.32022 12.8351 6.69067 11.2055 6.69067 9.19536C6.69067 7.18521 8.32022 5.55566 10.3304 5.55566C12.0987 5.55566 13.5715 6.81623 13.9012 8.4877C13.9074 8.49323 13.9127 8.49862 13.917 8.50351C13.9358 8.52452 13.9458 8.54482 13.9505 8.55542C13.9557 8.56721 13.9589 8.57732 13.9606 8.58377C13.9641 8.59643 13.9658 8.60708 13.9665 8.61257C13.9681 8.62415 13.9687 8.63508 13.9691 8.64238C13.9698 8.65812 13.9701 8.67868 13.9701 8.70351V8.90025H13.1439C13.1401 8.90539 13.1357 8.91077 13.1308 8.9162C13.1141 8.93447 13.0757 8.96957 13.0137 8.97918C12.9819 8.98411 12.9504 8.98109 12.9217 8.97176C12.8941 8.96275 12.8728 8.94915 12.8577 8.93687C12.8424 8.9245 12.831 8.91148 12.8226 8.90025H12.8115V8.88362C12.81 8.88113 12.8087 8.87892 12.8077 8.87703C12.8 8.86326 12.7952 8.85091 12.7923 8.84274C12.7892 8.83403 12.7869 8.82599 12.7851 8.81934C12.7817 8.80622 12.7791 8.7929 12.7771 8.78062C12.5801 7.60791 11.5591 6.71425 10.3304 6.71425C8.96009 6.71425 7.84926 7.82508 7.84926 9.19536C7.84926 10.5656 8.96009 11.6765 10.3304 11.6765C10.8019 11.6765 11.2411 11.5455 11.6155 11.3182L11.7837 11.2162ZM13.7733 8.70351C13.7733 8.61621 13.7701 8.62785 13.7637 8.65075C13.7557 8.67909 13.743 8.72467 13.7256 8.62127C13.7192 8.58288 13.7121 8.54471 13.7044 8.50677C13.7035 8.50259 13.7027 8.49841 13.7018 8.49423C13.699 8.4805 13.696 8.46681 13.693 8.45314C13.3535 6.90835 11.9773 5.7524 10.3304 5.7524C8.42888 5.7524 6.88741 7.29387 6.88741 9.19536C6.88741 11.0968 8.42888 12.6383 10.3304 12.6383C10.9126 12.6383 11.462 12.4935 11.9434 12.2377C12.0015 12.2069 12.0585 12.1745 12.1146 12.1405L11.7176 11.4864C11.3133 11.7318 10.8389 11.8732 10.3304 11.8732C8.85143 11.8732 7.65252 10.6743 7.65252 9.19536C7.65252 7.71642 8.85143 6.51751 10.3304 6.51751C11.5649 6.51751 12.6048 7.35318 12.9144 8.48969C12.9237 8.52381 12.9323 8.5582 12.9403 8.59285C12.9487 8.62945 12.9563 8.66635 12.9632 8.70351C12.966 8.7183 12.9686 8.73314 12.9711 8.74802C12.9815 8.81002 12.9898 8.78314 12.9959 8.74386C12.9979 8.73084 12.9997 8.71647 13.0012 8.70351C13.0016 8.70024 13.0019 8.69707 13.0023 8.69402C13.0062 8.66022 13.0082 8.64304 13.0082 8.70351H13.7733Z" fill="black"/>
<path fill-rule="evenodd" clip-rule="evenodd" d="M16.1189 10.8535C16.3061 10.7949 16.5333 10.6441 16.7131 10.3826C16.8929 10.1211 16.9524 9.85505 16.9402 9.65924C16.9281 9.4653 16.8559 9.3894 16.8174 9.36293C16.7789 9.33647 16.6822 9.29619 16.4968 9.3543C16.3095 9.41298 16.0824 9.56374 15.9026 9.82523C15.7227 10.0867 15.6633 10.3528 15.6755 10.5486C15.6876 10.7425 15.7598 10.8185 15.7983 10.8449C15.8368 10.8714 15.9335 10.9117 16.1189 10.8535ZM15.2409 11.6555C15.9124 12.1172 16.9344 11.7969 17.5237 10.94C18.1129 10.0831 18.0462 9.01413 17.3748 8.55238C16.7033 8.09063 15.6813 8.41096 15.092 9.26785C14.5028 10.1247 14.5694 11.1937 15.2409 11.6555Z" fill="black"/>
</svg>
