<svg width="26" height="26" viewBox="0 0 26 26" fill="none" xmlns="http://www.w3.org/2000/svg">
<path d="M26 13C26 20.1797 20.1797 26 13 26C5.8203 26 0 20.1797 0 13C0 5.8203 5.8203 0 13 0C20.1797 0 26 5.8203 26 13Z" fill="#E3EAFF"/>
<path d="M26 13C26 20.1797 20.1797 26 13 26C5.8203 26 0 20.1797 0 13C0 5.8203 5.8203 0 13 0C20.1797 0 26 5.8203 26 13Z" fill="#E3EAFF"/>
<g clip-path="url(#clip0_4716_135)">
<path d="M18.9375 6.25H17.5V5.5C17.5 5.22387 17.2762 5 17 5C16.7238 5 16.5 5.22387 16.5 5.5V6.25H9.5V5.5C9.5 5.22387 9.27616 5 9 5C8.72384 5 8.5 5.22387 8.5 5.5V6.25H7.0625C5.92522 6.25 5 7.17522 5 8.3125V18.9375C5 20.0748 5.92522 21 7.0625 21H18.9375C20.0748 21 21 20.0748 21 18.9375V8.3125C21 7.17522 20.0748 6.25 18.9375 6.25ZM20 18.9375C20 19.5243 19.5243 20 18.9375 20H7.0625C6.47569 20 6 19.5243 6 18.9375V10.6562C6 10.57 6.06997 10.5 6.15625 10.5H19.8438C19.93 10.5 20 10.57 20 10.6562V18.9375Z" fill="#4E73DF"/>
</g>
<defs>
<clipPath id="clip0_4716_135">
<rect width="16" height="16" fill="white" transform="translate(5 5)"/>
</clipPath>
</defs>
</svg>
