<svg width="26" height="30" viewBox="0 0 26 30" fill="none" xmlns="http://www.w3.org/2000/svg">
<g clip-path="url(#clip0_326_164)">
<mask id="mask0_326_164" style="mask-type:luminance" maskUnits="userSpaceOnUse" x="0" y="0" width="26" height="30">
<path d="M25.9366 0H0V30H25.9366V0Z" fill="white"/>
</mask>
<g mask="url(#mask0_326_164)">
<path d="M12.9683 0C5.79251 0 0 5.79251 0 12.9683C0 19.2795 4.49568 24.4669 10.3746 25.6772L12.0173 29.3948C12.3631 30.2594 13.5735 30.1729 13.9193 29.3084L15.3026 25.6772C21.3545 24.6398 25.9366 19.2795 25.9366 12.9683C25.9366 5.79251 20.1441 0 12.9683 0ZM16.0807 23.7752C16.0807 23.7752 14.5245 24.0346 13.9193 24.6398L12.9683 27.147L11.7579 24.4669V24.3804C11.0663 23.8617 9.683 23.6023 9.51009 23.6023C5.01441 22.219 1.72911 17.9827 1.72911 12.9683C1.72911 6.74352 6.74352 1.72911 12.9683 1.72911C19.1931 1.72911 24.2075 6.74352 24.2075 12.9683C24.2075 18.0692 20.7493 22.3919 16.0807 23.7752Z" fill="black"/>
</g>
<path d="M12.9682 12.1038C13.6599 12.1038 14.265 12.7089 14.265 13.4006V17.7234C14.265 18.415 13.6599 19.0202 12.9682 19.0202C12.2766 19.0202 11.6714 18.415 11.6714 17.7234V13.4006C11.6714 12.7089 12.2766 12.1038 12.9682 12.1038Z" fill="black"/>
<path d="M12.9682 7.78101C13.6599 7.78101 14.265 8.38619 14.265 9.07784C14.265 9.76948 13.6599 10.3747 12.9682 10.3747C12.2766 10.3747 11.6714 9.76948 11.6714 9.07784C11.6714 8.38619 12.2766 7.78101 12.9682 7.78101Z" fill="black"/>
</g>
<defs>
<clipPath id="clip0_326_164">
<rect width="25.9366" height="30" fill="white"/>
</clipPath>
</defs>
</svg>
