<svg width="22" height="19" viewBox="0 0 22 19" fill="none" xmlns="http://www.w3.org/2000/svg">
<path d="M20.6168 2.94246C20.7586 2.94246 20.9005 2.89517 20.9951 2.8006C21.0896 2.70603 21.1842 2.56417 21.1842 2.37503V0.861868C21.1842 0.72001 21.0896 0.578151 20.9951 0.483579C20.9005 0.389007 20.7586 0.294434 20.6168 0.294434H0.567434C0.378289 0.294434 0.236431 0.389007 0.141859 0.483579C0.0472862 0.578151 0 0.72001 0 0.861868V2.37503C0 2.56417 0.0472862 2.70603 0.141859 2.8006C0.236431 2.89517 0.378289 2.94246 0.567434 2.94246H20.6168ZM20.6168 10.5082C20.7586 10.5082 20.9005 10.461 20.9951 10.3664C21.0896 10.2718 21.1842 10.13 21.1842 9.94082V8.42766C21.1842 8.2858 21.0896 8.14394 20.9951 8.04937C20.9005 7.9548 20.7586 7.86022 20.6168 7.86022H0.567434C0.378289 7.86022 0.236431 7.9548 0.141859 8.04937C0.0472862 8.14394 0 8.2858 0 8.42766V9.94082C0 10.13 0.0472862 10.2718 0.141859 10.3664C0.236431 10.461 0.378289 10.5082 0.567434 10.5082H20.6168ZM20.6168 18.074C20.7586 18.074 20.9005 18.0268 20.9951 17.9322C21.0896 17.8376 21.1842 17.6957 21.1842 17.5066V15.9934C21.1842 15.8516 21.0896 15.7097 20.9951 15.6152C20.9005 15.5206 20.7586 15.426 20.6168 15.426H0.567434C0.378289 15.426 0.236431 15.5206 0.141859 15.6152C0.0472862 15.7097 0 15.8516 0 15.9934V17.5066C0 17.6957 0.0472862 17.8376 0.141859 17.9322C0.236431 18.0268 0.378289 18.074 0.567434 18.074H20.6168Z" fill="#495057"/>
</svg>
