<svg width="37" height="38" viewBox="0 0 37 38" fill="none" xmlns="http://www.w3.org/2000/svg">
<path d="M28.727 30.2896C27.8093 28.1277 25.6668 26.6113 23.1702 26.6113H14.1193C11.6226 26.6113 9.48015 28.1277 8.5625 30.2896" stroke="#7B8593" stroke-width="1.72398" stroke-linecap="round" stroke-linejoin="round"/>
<path d="M18.6433 21.3315C21.9757 21.3315 24.6772 18.63 24.6772 15.2976C24.6772 11.9651 21.9757 9.26367 18.6433 9.26367C15.3109 9.26367 12.6094 11.9651 12.6094 15.2976C12.6094 18.63 15.3109 21.3315 18.6433 21.3315Z" stroke="#7B8593" stroke-width="1.72398" stroke-linecap="round" stroke-linejoin="round"/>
<path d="M18.6395 34.154C26.9706 34.154 33.7243 27.4003 33.7243 19.0692C33.7243 10.7381 26.9706 3.98438 18.6395 3.98438C10.3084 3.98438 3.55469 10.7381 3.55469 19.0692C3.55469 27.4003 10.3084 34.154 18.6395 34.154Z" stroke="#7B8593" stroke-width="1.72398" stroke-linecap="round" stroke-linejoin="round"/>
</svg>
