<svg width="28" height="27" viewBox="0 0 28 27" fill="none" xmlns="http://www.w3.org/2000/svg">
<path d="M20.8158 8.9826C20.8158 7.21682 20.1143 5.52336 18.8657 4.27476C17.6171 3.02616 15.9237 2.32471 14.1579 2.32471C12.3921 2.32471 10.6986 3.02616 9.45005 4.27476C8.20145 5.52336 7.5 7.21682 7.5 8.9826C7.5 16.7501 4.17105 18.9694 4.17105 18.9694H24.1447C24.1447 18.9694 20.8158 16.7501 20.8158 8.9826Z" stroke="#495057" stroke-width="2.42105" stroke-linecap="round" stroke-linejoin="round"/>
<path d="M16.0775 23.4082C15.8824 23.7445 15.6024 24.0237 15.2655 24.2177C14.9286 24.4118 14.5466 24.5139 14.1578 24.5139C13.769 24.5139 13.3871 24.4118 13.0502 24.2177C12.7133 24.0237 12.4332 23.7445 12.2382 23.4082" stroke="#495057" stroke-width="2.42105" stroke-linecap="round" stroke-linejoin="round"/>
</svg>
