<svg width="21" height="21" viewBox="0 0 21 21" fill="none" xmlns="http://www.w3.org/2000/svg">
<path fill-rule="evenodd" clip-rule="evenodd" d="M8.57787 5.94716C9.73467 5.27501 11.1566 5.28675 12.3025 5.97793C13.4372 6.68319 14.1268 7.94186 14.1204 9.29584C14.094 10.6409 13.3545 11.9053 12.4302 12.8828C11.8967 13.4495 11.2998 13.9506 10.6519 14.3758C10.5852 14.4144 10.5121 14.4402 10.4362 14.452C10.3632 14.4489 10.2921 14.4274 10.2293 14.3893C9.24013 13.7503 8.37229 12.9346 7.66757 11.9815C7.07788 11.186 6.74287 10.2248 6.70801 9.22858C6.70724 7.87201 7.42107 6.61931 8.57787 5.94716ZM9.24648 9.78987C9.44107 10.2696 9.90038 10.5825 10.4099 10.5825C10.7438 10.5849 11.0647 10.4512 11.3011 10.2112C11.5376 9.97113 11.67 9.64472 11.6688 9.30467C11.6706 8.78562 11.365 8.31666 10.8948 8.11677C10.4245 7.91687 9.8823 8.02547 9.52135 8.39186C9.1604 8.75825 9.05189 9.31015 9.24648 9.78987Z" fill="#5669FF"/>
<path opacity="0.4" d="M10.4142 16.0404C11.8762 16.0404 13.0615 15.8033 13.0615 15.5109C13.0615 15.2185 11.8762 14.9814 10.4142 14.9814C8.95209 14.9814 7.76685 15.2185 7.76685 15.5109C7.76685 15.8033 8.95209 16.0404 10.4142 16.0404Z" fill="#5669FF"/>
</svg>
