<svg width="12" height="7" viewBox="0 0 12 7" fill="none" xmlns="http://www.w3.org/2000/svg">
<path d="M5.926 6.79523H5.8929C5.9591 6.86143 6.0584 6.89453 6.1908 6.89453C6.2901 6.89453 6.3894 6.86143 6.4887 6.79523L11.3876 1.92948C11.4538 1.86328 11.4869 1.76398 11.4869 1.66468C11.4869 1.56538 11.4538 1.46608 11.3876 1.36678L10.7255 0.70477C10.6262 0.638569 10.5269 0.605469 10.4276 0.605469C10.2952 0.605469 10.229 0.638569 10.1628 0.70477L6.1908 4.64371L2.21876 0.70477C2.15256 0.638569 2.05326 0.605469 1.95396 0.605469C1.82155 0.605469 1.72225 0.638569 1.65605 0.70477L0.994046 1.36678C0.927845 1.46608 0.894745 1.56538 0.894745 1.66468C0.894745 1.76398 0.927845 1.86328 1.02715 1.92948L5.926 6.79523Z" fill="#495057"/>
</svg>
