<svg width="17" height="17" viewBox="0 0 17 17" fill="none" xmlns="http://www.w3.org/2000/svg">
<path d="M12.5408 7.75702C12.5408 7.65803 12.4748 7.55903 12.4088 7.49304C12.3428 7.42704 12.2438 7.36104 12.1448 7.36104H9.24099V4.45722C9.24099 4.35823 9.175 4.25923 9.109 4.19324C9.04301 4.12724 8.94401 4.06124 8.84502 4.06124H7.78908C7.65709 4.06124 7.55809 4.12724 7.4921 4.19324C7.4261 4.25923 7.3931 4.35823 7.3931 4.45722V7.36104H4.48928C4.35729 7.36104 4.25829 7.42704 4.1923 7.49304C4.1263 7.55903 4.0933 7.65803 4.0933 7.75702V8.81296C4.0933 8.94495 4.1263 9.04394 4.1923 9.10994C4.25829 9.17593 4.35729 9.20893 4.48928 9.20893H7.3931V12.1128C7.3931 12.2447 7.4261 12.3437 7.4921 12.4097C7.55809 12.4757 7.65709 12.5087 7.78908 12.5087H8.84502C8.94401 12.5087 9.04301 12.4757 9.109 12.4097C9.175 12.3437 9.24099 12.2447 9.24099 12.1128V9.20893H12.1448C12.2438 9.20893 12.3428 9.17593 12.4088 9.10994C12.4748 9.04394 12.5408 8.94495 12.5408 8.81296V7.75702ZM16.5006 8.28499C16.5006 6.83308 16.1046 5.44716 15.3786 4.19324C14.6527 2.93931 13.6627 1.94937 12.4088 1.22342C11.1549 0.49746 9.76896 0.101484 8.31705 0.101484C6.83214 0.101484 5.47922 0.49746 4.2253 1.22342C2.97137 1.94937 1.94843 2.93931 1.22248 4.19324C0.496522 5.44716 0.133544 6.83308 0.133544 8.28499C0.133544 9.7699 0.496522 11.1228 1.22248 12.3767C1.94843 13.6307 2.97137 14.6536 4.2253 15.3796C5.47922 16.1055 6.83214 16.4685 8.31705 16.4685C9.76896 16.4685 11.1549 16.1055 12.4088 15.3796C13.6627 14.6536 14.6527 13.6307 15.3786 12.3767C16.1046 11.1228 16.5006 9.7699 16.5006 8.28499ZM14.9166 8.28499C14.9166 9.47292 14.6197 10.5948 14.0257 11.5848C13.4317 12.6077 12.6068 13.3997 11.6168 13.9936C10.5939 14.5876 9.50498 14.8846 8.31705 14.8846C7.12912 14.8846 6.00719 14.5876 5.01725 13.9936C3.99431 13.3997 3.20236 12.6077 2.60839 11.5848C2.01443 10.5948 1.71745 9.47292 1.71745 8.28499C1.71745 7.09706 2.01443 6.00813 2.60839 4.98519C3.20236 3.99525 3.99431 3.1703 5.01725 2.57633C6.00719 1.98237 7.12912 1.68539 8.31705 1.68539C9.50498 1.68539 10.5939 1.98237 11.6168 2.57633C12.6068 3.1703 13.4317 3.99525 14.0257 4.98519C14.6197 6.00813 14.9166 7.09706 14.9166 8.28499Z" fill="white"/>
</svg>
